<?xml version="1.0" encoding="utf-8"?>
<!-- Generator: Adobe Illustrator 26.3.1, SVG Export Plug-In . SVG Version: 6.00 Build 0)  -->
<svg version="1.1" id="Layer_1" xmlns="http://www.w3.org/2000/svg" xmlns:xlink="http://www.w3.org/1999/xlink" x="0px" y="0px"
	 viewBox="0 0 510.9 287.6" style="enable-background:new 0 0 510.9 287.6;" xml:space="preserve">
<style type="text/css">
	.st0{fill:#FFFFFF;}
	.st1{fill:#E5365B;}
	.st2{fill:#3B161D;}
	.st3{fill:#F1F1F1;}
	.st4{fill:#B8ABAD;}
	.st5{fill:#B22140;}
</style>
<path class="st0" d="M31.6,262.6h6.2c1.6,0,2.7-0.5,3.5-1.5c0.7-0.9,1.1-2,1.1-3.1c0-1-0.2-1.8-0.5-2.4c-0.3-0.6-0.8-1.1-1.3-1.4
	c-0.9-0.6-1.9-0.8-3-0.8h-6V262.6z M27.4,249.3h10c1.1,0,2.1,0.1,3.1,0.3c1,0.3,2,0.8,3.1,1.7c0.9,0.6,1.6,1.5,2.1,2.7
	c0.6,1.1,0.8,2.5,0.8,4.1c0,2.1-0.7,4-2.2,5.8c-1.5,1.8-3.6,2.8-6.5,2.8h-6.4v11.1h-4.2V249.3z"/>
<path class="st0" d="M70.1,261.8h6.3c1.6,0,2.7-0.5,3.5-1.4c0.8-0.8,1.2-1.9,1.2-3.1c0-1.5-0.5-2.6-1.4-3.2
	c-0.7-0.6-1.7-0.9-3.1-0.9h-6.6V261.8z M65.9,249.3h10.8c2.3,0,4.2,0.6,5.6,1.9c1.7,1.4,2.7,3.4,2.7,6.1c-0.1,3.9-1.8,6.5-5.3,7.9
	l6.4,12.6h-5l-5.7-12.2h-5.3v12.2h-4.2V249.3z"/>
<path class="st0" d="M108.3,263.6c0,2.8,0.1,4.7,0.3,5.7c0.2,1,0.5,1.8,1.1,2.4c0.4,0.6,1,1.1,1.7,1.4c0.7,0.4,1.6,0.6,2.5,0.6
	c1,0,1.9-0.2,2.6-0.6c0.7-0.4,1.2-0.8,1.7-1.4c0.5-0.6,0.9-1.4,1.1-2.4c0.2-1,0.3-2.9,0.3-5.7s-0.1-4.7-0.3-5.7
	c-0.2-1-0.6-1.8-1.1-2.4c-0.4-0.6-1-1.1-1.7-1.5c-0.7-0.4-1.6-0.6-2.6-0.6c-1,0-1.8,0.2-2.5,0.6c-0.7,0.4-1.3,0.9-1.7,1.5
	c-0.5,0.6-0.9,1.4-1.1,2.4C108.4,258.8,108.3,260.8,108.3,263.6 M104.1,263.6c0-3.3,0.1-5.5,0.3-6.6c0.2-1.1,0.5-2,0.9-2.7
	c0.7-1.3,1.7-2.5,3.2-3.5c1.4-1,3.3-1.6,5.4-1.6c2.2,0,4,0.6,5.5,1.6c1.4,1,2.5,2.2,3.1,3.5c0.5,0.7,0.8,1.6,1,2.7
	c0.2,1.1,0.2,3.3,0.2,6.6c0,3.3-0.1,5.4-0.2,6.6c-0.2,1.1-0.5,2.1-1,2.8c-0.6,1.3-1.7,2.5-3.1,3.5c-1.5,1-3.3,1.6-5.5,1.6
	c-2.2-0.1-4-0.6-5.4-1.6c-1.5-1-2.5-2.2-3.2-3.5c-0.2-0.4-0.4-0.8-0.5-1.2c-0.2-0.4-0.3-0.9-0.4-1.5
	C104.2,269,104.1,266.8,104.1,263.6"/>
<path class="st0" d="M148.4,273.7h5c2.3,0,4-0.8,5.1-2.5c0.5-0.6,0.8-1.4,0.9-2.3c0.1-0.9,0.2-2.7,0.2-5.2c0-2.5-0.1-4.2-0.2-5.3
	c-0.2-1.1-0.5-1.9-1.1-2.6c-1.2-1.7-2.8-2.5-4.9-2.4h-5V273.7z M144.2,249.3h9.6c3.7,0,6.5,1.6,8.4,4.8c0.7,1.1,1.1,2.2,1.3,3.4
	c0.1,1.2,0.2,3.2,0.2,6.1c0,3.1-0.1,5.2-0.3,6.4c-0.1,0.6-0.3,1.2-0.5,1.6c-0.2,0.5-0.5,1-0.8,1.5c-0.8,1.3-1.9,2.4-3.4,3.3
	c-1.4,0.9-3.2,1.4-5.2,1.4h-9.4V249.3z"/>
<path class="st0" d="M183.6,249.3h4.2v18.4c0,1.9,0.6,3.4,1.6,4.4c1,1.1,2.4,1.6,4,1.6c1.6,0,3-0.5,4-1.6c1-1,1.6-2.5,1.6-4.4v-18.4
	h4.2v18.8c-0.1,3-1,5.4-2.8,7.1c-1.8,1.8-4.2,2.7-7,2.8c-2.8,0-5.1-0.9-6.9-2.7c-1.9-1.8-2.8-4.1-2.9-7.1V249.3z"/>
<path class="st0" d="M242.7,269.8c-0.6,2.6-1.8,4.7-3.5,6.1c-1.8,1.4-3.8,2.1-6.2,2.1c-2.2-0.1-4-0.6-5.4-1.6
	c-1.5-1-2.5-2.2-3.2-3.5c-0.2-0.4-0.4-0.8-0.5-1.2c-0.2-0.4-0.3-0.9-0.4-1.5c-0.2-1.1-0.3-3.3-0.3-6.6c0-3.3,0.1-5.5,0.3-6.6
	c0.2-1.1,0.5-2,0.9-2.7c0.7-1.3,1.7-2.5,3.2-3.5c1.4-1,3.3-1.6,5.4-1.6c2.7,0,4.8,0.8,6.5,2.4c1.7,1.6,2.7,3.6,3.2,6h-4.4
	c-0.3-1.1-1-2.1-1.9-2.9c-0.9-0.8-2.1-1.2-3.4-1.2c-1,0-1.8,0.2-2.5,0.6c-0.7,0.4-1.3,0.9-1.7,1.5c-0.5,0.6-0.9,1.4-1.1,2.4
	c-0.2,1-0.3,2.9-0.3,5.7c0,2.8,0.1,4.7,0.3,5.7c0.2,1,0.5,1.8,1.1,2.4c0.4,0.6,1,1.1,1.7,1.4c0.7,0.4,1.6,0.6,2.5,0.6
	c2.3,0,4.1-1.3,5.3-3.9H242.7z"/>
<polygon class="st0" points="258.2,249.3 258.2,253.2 265.8,253.2 265.8,277.8 270,277.8 270,253.2 277.5,253.2 277.5,249.3 "/>
<rect x="295.9" y="249.3" class="st0" width="4.2" height="28.4"/>
<path class="st0" d="M324.2,263.6c0,2.8,0.1,4.7,0.3,5.7c0.2,1,0.5,1.8,1.1,2.4c0.4,0.6,1,1.1,1.7,1.4c0.7,0.4,1.6,0.6,2.5,0.6
	c1,0,1.9-0.2,2.6-0.6c0.7-0.4,1.2-0.8,1.7-1.4c0.5-0.6,0.9-1.4,1.1-2.4c0.2-1,0.3-2.9,0.3-5.7s-0.1-4.7-0.3-5.7
	c-0.2-1-0.6-1.8-1.1-2.4c-0.4-0.6-1-1.1-1.7-1.5c-0.7-0.4-1.6-0.6-2.6-0.6c-1,0-1.8,0.2-2.5,0.6c-0.7,0.4-1.3,0.9-1.7,1.5
	c-0.5,0.6-0.9,1.4-1.1,2.4C324.3,258.8,324.2,260.8,324.2,263.6 M320,263.6c0-3.3,0.1-5.5,0.3-6.6c0.2-1.1,0.5-2,0.9-2.7
	c0.7-1.3,1.7-2.5,3.2-3.5c1.4-1,3.3-1.6,5.4-1.6c2.2,0,4,0.6,5.5,1.6c1.4,1,2.5,2.2,3.1,3.5c0.5,0.7,0.8,1.6,1,2.7
	c0.2,1.1,0.2,3.3,0.2,6.6c0,3.3-0.1,5.4-0.2,6.6c-0.2,1.1-0.5,2.1-1,2.8c-0.6,1.3-1.7,2.5-3.1,3.5c-1.5,1-3.3,1.6-5.5,1.6
	c-2.2-0.1-4-0.6-5.4-1.6c-1.5-1-2.5-2.2-3.2-3.5c-0.2-0.4-0.4-0.8-0.5-1.2c-0.2-0.4-0.3-0.9-0.4-1.5C320.1,269,320,266.8,320,263.6"
	/>
<polygon class="st0" points="376.6,249.3 376.6,269.6 376.5,269.6 364,249.3 360.1,249.3 360.1,277.8 364.3,277.8 364.3,257.6 
	364.3,257.6 376.8,277.8 380.8,277.8 380.8,249.3 "/>
<path class="st0" d="M402.6,270.9c2.2,1.9,4.8,2.8,7.8,2.8c3.6-0.1,5.4-1.4,5.4-4c0-2.1-1.2-3.4-3.6-3.8c-1.1-0.2-2.3-0.3-3.6-0.5
	c-2.4-0.4-4.2-1.3-5.4-2.7c-1.3-1.4-1.9-3.2-1.9-5.3c0-2.5,0.8-4.5,2.4-6c1.5-1.5,3.7-2.3,6.6-2.3c3.4,0.1,6.4,1.1,8.9,2.9l-2.3,3.5
	c-2.1-1.4-4.3-2.1-6.8-2.2c-1.3,0-2.4,0.3-3.2,1c-0.9,0.7-1.4,1.7-1.4,3.1c0,0.8,0.3,1.6,0.9,2.2c0.6,0.7,1.6,1.1,3,1.4
	c0.8,0.1,1.8,0.3,3.1,0.4c2.6,0.4,4.5,1.3,5.7,2.9c1.2,1.5,1.8,3.3,1.8,5.3c-0.1,5.4-3.4,8.2-9.7,8.3c-4.1,0-7.6-1.3-10.5-3.9
	L402.6,270.9z"/>
<path class="st1" d="M437.9,63h19.6v3.6h-19.6V63z M446.3,175.4v-1.6h28v-2.4h-41.6c1.9-2.7,4.5-5.1,8-7.4
	c9.5-6.3,14.5-17.2,14.6-28.6h37.1v-3.6h-37.2c-0.3-3.8-1.1-7.5-2.5-11.2c-0.5-1.4-1.1-2.8-1.6-4.2c18.3-2.9,29.7-13.4,35-25.8
	h-19.3v-6.8h21.6c1.8-7.3,1.7-14.9-0.2-21.7c-0.1-0.5-0.3-1-0.5-1.6h9.2v-4.1h-7.8v-1.6h7.8v-1.6h-12.4
	c-8.8-15.6-28.9-28.6-56.3-17.8c-8.6-19.4-23.2-30-44.7-27.4c-20.9,2.5-32.4,15.9-36.7,36.4c-13-6.7-24.7-5.5-34.2,5.6
	c-0.4,0.5-0.8,1-1.1,1.4h24.2v6.8h-52v2.2h23.9c-1.2,6.5,0.7,13.8,5.6,22.2c-1.8,0.3-3.5,0.6-5.2,1H270v6.8h24.4
	c-2.8,2.5-5.2,5.6-7.1,9.4c-3,6.1-3.8,12.6-2.5,19.3c0.9,4.8,2.8,8.9,5.5,12.4h-11.6v1.6h45.6v1.6h-45.6v0.5h15
	c5.4,4.8,13,7.8,22.6,8.6c-1.2,2.1-2.3,4-3.3,5.9c-4.6,9.4-0.3,17.2,10,18.1c3.7,0.3,7.4,0.1,11.1,0.3c3.7,0.2,7,1.3,9.6,3.1h25.1
	v6.8h-19.4c0.3,0.7,0.6,1.5,0.8,2.3c2,6.9-0.6,14.7-6.2,18.5c-6,4.1-14.3,3.8-20.9-0.7c-0.3-0.2-0.5-0.4-0.8-0.5
	c-1.9-1.1-3.7-2.3-5.6-3.4c-1.2,2.4-3,4.7-3.4,7.3c-2.1,11.3,8,23.4,19.8,24.4c14.3,1.2,27.2-1.8,38-11.8c1.2-1.1,4-1.3,5.8-1
	c8.6,1.5,17.1,2.2,25.7,0.2c15.1-3.5,24.7-13.2,25.8-28.7c0.2-2.4,0.5-4.5,1-6.5h44.7v-2.8H446.3z"/>
<path class="st2" d="M394.7,15.4c-2,0-4,0.1-6.2,0.4c-20.9,2.5-32.4,15.9-36.7,36.4c-5.2-2.7-10.2-4.1-15-4.1
	c-7,0-13.5,3.1-19.2,9.7c-7.5,8.7-7.2,19.3,0.4,32.7c-11.4,1.6-20.4,6.8-25.5,17.2c-3,6.1-3.8,12.6-2.5,19.3
	c2.8,14.4,13.8,23.2,31.5,24.6c-1.2,2.1-2.3,4-3.3,5.9c-4.6,9.4-0.3,17.2,10,18.1c3.7,0.3,7.4,0.1,11.1,0.3
	c8.2,0.5,14.2,5.1,16.2,12.1c2,6.9-0.6,14.7-6.2,18.5c-2.8,1.9-6.2,2.9-9.6,2.9c-3.8,0-7.8-1.2-11.3-3.6c-0.3-0.2-0.5-0.4-0.8-0.5
	c-1.9-1.1-3.7-2.3-5.6-3.4c-1.2,2.4-3,4.7-3.4,7.3c-2.1,11.4,8,23.4,19.8,24.4c2,0.2,3.9,0.2,5.8,0.2c12,0,22.9-3.4,32.2-12.1
	c0.9-0.8,2.5-1.1,4.1-1.1c0.6,0,1.2,0.1,1.7,0.1c4.8,0.9,9.6,1.4,14.4,1.4c3.7,0,7.5-0.4,11.2-1.2c15.1-3.5,24.7-13.2,25.8-28.7
	c0.7-9.6,3.9-15.4,12-20.7c13.7-9,18-27.5,11.9-43.4c-0.5-1.4-1.1-2.8-1.6-4.2c31.8-5,43-33.2,37.1-54.2
	c-4.1-14.7-18.7-30.6-40.5-30.6c-6,0-12.5,1.2-19.5,3.9C425.5,25.8,412.8,15.4,394.7,15.4 M394.7,22.3c14.6,0,25.1,7.8,32.2,23.7
	c1.1,2.6,3.7,4.1,6.3,4.1c0.8,0,1.7-0.2,2.5-0.5c5.9-2.3,11.6-3.5,17-3.5c18.3,0,30.4,13.2,33.8,25.5c2.7,9.6,1,20.5-4.4,29
	c-4,6.2-11.9,14.2-27.1,16.5c-2.1,0.3-3.9,1.6-4.9,3.4c-1,1.8-1.2,4-0.4,6l0.5,1.4c0.4,0.9,0.7,1.9,1.1,2.8
	c5.1,13.5,1.2,28.3-9.3,35.2c-9.8,6.4-14.3,14.2-15.1,26c-0.8,11.9-7.7,19.5-20.5,22.4c-3,0.7-6.2,1.1-9.7,1.1
	c-3.9,0-8.1-0.4-13.2-1.3c-0.9-0.2-1.9-0.2-2.9-0.2c-2.5,0-6.1,0.5-8.8,3c-7.4,6.9-16.4,10.2-27.5,10.2c-1.7,0-3.4-0.1-5.2-0.2
	c-4-0.3-8-2.7-10.7-6.2c-2-2.6-3.1-5.6-3-8.3c4.4,2.8,9.3,4.3,14.4,4.3c4.9,0,9.6-1.4,13.5-4.1c8.1-5.6,11.7-16.3,8.9-26.1
	c-2.9-10-11.2-16.4-22.4-17.1c-1.9-0.1-3.7-0.1-5.5-0.2c-1.9,0-3.7,0-5.4-0.2c-2.5-0.2-4.4-1.1-5.1-2.3c-0.7-1.3-0.5-3.4,0.7-5.9
	c0.6-1.1,1.2-2.3,2-3.6c0.4-0.7,0.8-1.3,1.1-2c1.1-2.1,1.1-4.5,0-6.6c-1.1-2.1-3.2-3.4-5.5-3.6c-14.6-1.2-23.1-7.6-25.3-19.1
	c-1-5.3-0.4-10.2,2-15c3.8-7.8,10.3-12,20.3-13.4c2.3-0.3,4.2-1.7,5.2-3.8c1-2.1,0.9-4.5-0.2-6.5c-7.9-13.9-4.8-20.5-1.2-24.7
	c4.2-4.9,8.8-7.3,14-7.3c3.6,0,7.5,1.1,11.8,3.3c1,0.5,2.1,0.8,3.2,0.8c1,0,2-0.2,3-0.7c1.9-0.9,3.4-2.7,3.8-4.8
	c3.9-18.8,14-29,30.7-31C391.1,22.4,392.9,22.3,394.7,22.3z"/>
<path class="st2" d="M426.2,130.8c-1.8,1.8-3.8,3.3-5.7,5c-3.2,11.1-8.1,21.3-15.5,30.3c-1,1.2-1.9,2.7-3.8,2.8
	c-0.1,0.2-0.2,0.3-0.4,0.3c-0.1,0.9-0.7,1.3-1.5,1.1c-0.1,0.2-0.2,0.3-0.4,0.3c-4.3,4-13.2,4.3-17.7,0.7c-1-0.2-1.8-0.8-2.4-1.5
	c-2.5-0.7-4.2-2.4-5.6-4.3c-6.9-8.9-11.7-18.8-14.9-29.6c-1.8-1.6-3.7-3.1-5.5-4.8c-3.9-3.6-5.5-8.1-3.7-13.2c1.8-5.1,6-7.4,11-8.5
	c0.2,0,0.4,0,0.7-0.1c2.8-0.7,4.9-0.8,4.1,3.3c-0.4,1.9,0.8,3.8,2.2,5.6c1-3.4,1.5-6.9,4.8-8.5c2-0.9,4.2,0.3,6.4,1.2
	c-3.9,5.6-4,11.4-0.4,18c-6.7-3.1-12.3-6.2-17-10.6c-1.5-1.4-3-2.5-5-1.6c-1.9,0.9-2.6,2.7-2.5,4.7c0,1.1,0.1,2.2,0.4,3.3
	c1.7,5.3,5.4,6.3,9.3,2.1c2.1,7.3,4.8,14.2,7.7,21.1c2,3.3,3.9,6.7,5.9,10c1.8,1.8,3.2,3.9,5.4,5.3c5.5,3.4,12.4,2.7,17.1-2
	c1.2-1.2,2.3-2.4,3.4-3.6c1.7-3,3.5-6,5.2-9.1c0.2-0.5,0.2-1.2,0.8-1.4l-0.1,0c2.7-6.7,5.4-13.4,7.5-20.7c2.9,4,6.1,3.9,8.4,0
	c0.9-1.5,1.1-3.1,1.1-4.8c0-2.1-0.4-4.1-2.6-5c-2-0.8-3.5,0.3-5,1.7c-4,3.9-8.8,6.7-13.8,9.1c-0.8,0.4-1.6,0.6-2.6,0.4
	c3-6.4,2.9-9.6-0.8-16.9c6.6-3.1,8.9-1.1,10.8,7.1c2.2-2.1,2.5-4.6,2.4-7.2c0-0.7-0.8-2,0.8-1.9c6,0.2,13.1,2.7,15.1,9.7
	C431.4,123.4,429.6,127.4,426.2,130.8 M377.2,104.5c-0.4,0.8-1.1,0.5-1.6,0.5c-1.4-0.4-2.7-0.6-4-1c-1.3-0.5-2-1.5-1.3-2.9
	c0.6-1.2,1.8-1.3,2.9-0.6c1.1,0.7,2.1,1.6,3.2,2.3C377,103.3,377.6,103.8,377.2,104.5 M396.3,125.3c-2.5,3.2-6.9,4.3-10.5,2.6
	c-5.1-2.4-6.7-8.5-3.3-12.5c0.6-2,1.7-3,4.2-3.8c4.2-1.4,8.7,0.7,9.7,4.4C398.6,118.6,398.5,122.3,396.3,125.3 M373.1,134.1
	c10.9,3.1,21.3,3.4,31.9,0C400.4,143,380.4,143.1,373.1,134.1 M383.5,150.8c0-2.4,3.6-1.5,5.6-2.1c0.4-0.1,0.9-0.1,1.3,0
	c1.7,0.6,4.9-0.1,4.9,1.7c0,2.4-3.2,1.9-5.1,2.4c-0.3,0.1-0.7,0-1.4,0C387,152.5,383.5,152.9,383.5,150.8 M397.1,155.2
	c-3.9,6.4-11.1,6.4-15.7,0.1C390.2,157.8,390.3,157.7,397.1,155.2 M407.3,104c-1.5,0.5-3,0.8-4.4,1.1c-0.9,0-1.7,0-1.6-1.1
	c0.1-1,4.9-4,5.8-3.7c0.8,0.2,1.4,0.7,1.4,1.6C408.7,102.9,408.2,103.7,407.3,104 M367.2,66.8c13.6-8.9,31.2-8.9,44.6,0.3
	c8.1,5.5,13,16.7,10.8,24.9c0.1,3.1-1.1,6.1-1.6,9.1c-0.1,0.8-0.6,1.5-1.5,1.5c-0.9,0-1.4-0.5-1.6-1.4c-0.6-3.1-2.5-5.4-5-7.2
	c-1.5-1-0.9-2.3-1.1-3.6c-0.2-1.3-0.4-2.6-0.6-3.9c-1.1-1.4-1.8-3.3-3.7-4.5c-0.2,1.6-0.3,3-0.5,4.5c-0.8,6.3-4,11.1-9.2,14.5
	c-2.2,1.4-4.6,2.5-7.3,0.8c-0.9,0-1.8,0-2.6,0.1c-3.4,1.8-6.1,0-8.6-1.9c-4.4-3.4-7.1-7.9-7.8-13.5c-0.1-1.4-0.2-2.8-0.4-4.3
	c-2.1,0.9-2.5,3-3.8,4.4c-0.4,3.8-0.5,7.6-4.3,10c-1.3,0.8-1.8,2.5-2.2,4c-0.3,1-0.4,2-1.8,2c-1.1-0.1-1.4-1.1-1.5-1.9
	c-0.5-2.9-1.5-5.8-1.5-8.8C353.1,83.6,360.4,71.3,367.2,66.8 M433.7,110c-3.7-4.9-5.3-9.9-4-16.1c0.8-3.9,0.8-7.9,0.1-11.9
	c-3-7.6-6.9-14.5-13.5-19.5c-0.1-0.1-0.2-0.1-0.3-0.2c0,0-0.1-0.1-0.1-0.1c-3.8-2.7-8.2-4.6-12.4-5.8c0,0,0,0,0,0
	c-0.3-0.1-0.5-0.1-0.8-0.2c-7-2.1-14.1-2.5-21.2-1.3c-7.4,1.7-13.9,4.7-19.1,7.7c-0.1,0.1-0.2,0.2-0.4,0.3
	c-6.4,5-10.1,11.8-13.2,19.1c-0.3,4.4-0.3,8.8,0.4,13.2c0.8,4.9-0.2,9.3-3.3,13.4c-7.8,10.3-7.1,19.7,1.8,29.1
	c1,1.1,2.1,2.1,2.9,3.4c0,0,0,0,0,0c3.8,4.7,5.1,9.5,12.8,24.7c1.9,3.4,4.7,6.1,7.7,8.6c10.7,9,24.3,9.3,35.4,0.7
	c4.3-3.3,7.6-7.4,10.4-12c0.3-0.5,0.6-0.9,0.9-1.3c0-0.1,0.1-0.3,0.1-0.4c2.5-6.8,5.3-12,8-16.1c1.2-3.8,3.5-6.6,6-9.3
	C439.8,127.9,440.5,118.9,433.7,110"/>
<path class="st3" d="M356.1,91.9c-2.9-8.3,4.3-20.7,11.2-25.1c13.6-8.9,31.2-8.9,44.6,0.3c8.1,5.5,13,16.7,10.8,24.9
	c-2.2,0.5-3.7-0.4-5.2-2c-1.6-1.8-3.4-3.6-6.1-3.4c-1.1-1.5-1.8-3.3-3.7-4.5c-0.2,1.6-0.3,3-0.5,4.5c-3.1,0.5-4.6,2.9-6.2,5.1
	c-1.2,1.6-2,3.4-3.2,5c-1.9,2.4-4.8,3.4-7.1,5.2c-0.9,0-1.8,0-2.6,0.1c-5.6-2.7-8.7-7.5-11.8-12.6c-1-1.5-2.6-2.6-4.6-2.9
	c-0.1-1.4-0.2-2.8-0.4-4.3c-2.1,0.9-2.5,3-3.8,4.4c-2.9,0-4.9,1.7-6.5,3.8C359.5,92.2,358.1,92.7,356.1,91.9"/>
<path class="st3" d="M408.4,147c2.7-6.7,5.4-13.4,7.5-20.7c2.9,4,6.1,3.9,8.4,0c0.9-1.5,1.1-3.1,1.1-4.8c0-2.1-0.4-4.1-2.6-5
	c-2-0.8-3.5,0.3-5,1.7c-4,3.9-8.8,6.7-13.8,9.1c-0.8,0.4-1.6,0.6-2.6,0.4c3-6.4,2.9-9.6-0.8-16.9c6.6-3.1,8.9-1.1,10.9,7.1
	c2.2-2.1,2.5-4.6,2.4-7.2c0-0.7-0.8-2,0.8-1.9c6,0.2,13.1,2.7,15.1,9.6c1.4,5-0.3,8.9-3.7,12.3c-1.8,1.8-3.8,3.3-5.7,5
	c-2.3,0.6-3.6,2.2-5,4C413.5,142.5,412.2,146.1,408.4,147"/>
<path class="st3" d="M358.1,135.7c-1.8-1.6-3.7-3.1-5.5-4.8c-3.9-3.6-5.5-8.1-3.7-13.2c1.8-5.1,6-7.4,11-8.5c0.2,0,0.4,0,0.7-0.1
	c2.8-0.7,4.9-0.8,4.1,3.3c-0.4,1.9,0.8,3.8,2.2,5.6c1-3.4,1.5-7,4.8-8.5c2-0.9,4.2,0.3,6.4,1.2c-3.9,5.6-4,11.4-0.4,18
	c-6.7-3.1-12.3-6.2-17-10.6c-1.5-1.4-3-2.5-5-1.6c-1.9,0.8-2.6,2.7-2.5,4.7c0,1.1,0.1,2.2,0.4,3.3c1.7,5.3,5.4,6.3,9.3,2.1
	c2.1,7.3,4.8,14.2,7.7,21.1c-3.8-1.4-5.4-5-7.6-8C361.8,137.9,360.4,136.3,358.1,135.7"/>
<path class="st1" d="M396.4,115.9c2.2,2.7,2.1,6.4-0.2,9.4c-2.5,3.2-6.9,4.3-10.5,2.6c-5.1-2.4-6.7-8.5-3.3-12.5
	C387.3,112.5,391.9,112.2,396.4,115.9"/>
<path class="st3" d="M376.6,157.8c1.8,1.8,3.2,3.9,5.4,5.3c5.5,3.4,12.4,2.7,17.1-2c1.2-1.2,2.3-2.4,3.4-3.6
	c0.6,3.9-0.5,7.6-1.4,11.4c-0.1,0.2-0.2,0.3-0.4,0.3c-0.9-0.2-1.4,0.2-1.5,1.1c-0.1,0.2-0.2,0.3-0.4,0.3c-3.5,0.7-6.8,2.5-10.6,1.9
	c-2.4-0.4-4.7-0.8-7.1-1.2c-1-0.2-1.8-0.8-2.4-1.5C376.8,165.9,374.9,162.1,376.6,157.8"/>
<path class="st4" d="M376.6,157.8c-1.7,4.4,0.2,8.1,2.1,11.9c-2.5-0.7-4.2-2.4-5.6-4.3c-6.9-8.9-11.7-18.8-14.9-29.6
	c2.3,0.6,3.7,2.1,5,4c2.1,3,3.7,6.6,7.6,8C372.7,151.1,374.6,154.4,376.6,157.8"/>
<path class="st4" d="M401.2,168.8c0.8-3.7,2-7.5,1.4-11.4c1.7-3,3.5-6,5.2-9.1c0.6-0.3,0.9-0.7,0.8-1.4c0,0-0.1,0-0.1,0
	c3.8-1,5.1-4.5,7.1-7.2c1.4-1.8,2.7-3.4,5-4c-3.2,11.1-8.1,21.3-15.5,30.3C404,167.3,403.1,168.8,401.2,168.8"/>
<path class="st3" d="M373.1,134.1c10.9,3.1,21.3,3.4,31.9,0C400.4,143,380.4,143.1,373.1,134.1"/>
<path class="st4" d="M411.3,86.6c2.8-0.2,4.5,1.6,6.1,3.4c1.5,1.6,3,2.5,5.2,2c0.1,3.1-1.1,6.1-1.6,9.1c-0.1,0.8-0.6,1.5-1.5,1.5
	c-0.9,0-1.4-0.5-1.6-1.4c-0.6-3.1-2.5-5.4-5-7.1c-1.5-1-0.9-2.3-1-3.6C411.7,89.2,411.5,87.9,411.3,86.6"/>
<path class="st4" d="M356.1,91.9c2,0.8,3.5,0.3,4.8-1.5c1.6-2.1,3.6-3.8,6.5-3.8c-0.4,3.8-0.5,7.6-4.3,10c-1.3,0.8-1.8,2.5-2.2,4
	c-0.3,1-0.4,2-1.8,2c-1.1-0.1-1.4-1.1-1.5-1.9C357.1,97.8,356.1,94.9,356.1,91.9"/>
<path class="st4" d="M371.5,86.5c2,0.2,3.7,1.3,4.6,2.9c3.1,5,6.3,9.9,11.8,12.6c-3.4,1.8-6.1,0-8.6-1.9
	C375,96.6,372.3,92.1,371.5,86.5"/>
<path class="st4" d="M390.6,101.9c2.3-1.8,5.2-2.8,7.1-5.2c1.3-1.6,2.1-3.4,3.2-5c1.6-2.2,3.2-4.6,6.2-5.1c-0.8,6.3-4,11.1-9.2,14.5
	C395.7,102.5,393.3,103.6,390.6,101.9"/>
<path class="st5" d="M388.7,152.9c-1.7-0.4-5.3,0-5.3-2.2c0-2.4,3.6-1.5,5.6-2.1c0.4-0.1,0.9-0.1,1.3,0c1.7,0.6,4.9-0.1,4.9,1.7
	c0,2.4-3.2,1.9-5.1,2.4C389.8,153,389.5,152.9,388.7,152.9"/>
<path class="st3" d="M381.4,155.3c8.7,2.4,8.9,2.4,15.7-0.1C393.2,161.6,386.1,161.7,381.4,155.3"/>
<path class="st3" d="M396.4,115.9c-4.5-3.7-9.2-3.4-13.9-0.5c0.6-2,1.7-3,4.2-3.8C390.9,110.2,395.4,112.2,396.4,115.9"/>
<path class="st1" d="M402.9,105.1c-0.9,0-1.7,0-1.6-1.1c0.1-1,4.9-4,5.8-3.7c0.8,0.2,1.4,0.7,1.4,1.6c0.1,1-0.4,1.8-1.3,2.1
	C405.9,104.4,404.3,104.7,402.9,105.1"/>
<path class="st1" d="M375.6,105c-1.4-0.4-2.7-0.6-4-1c-1.3-0.5-2-1.5-1.3-2.9c0.6-1.2,1.8-1.3,2.9-0.6c1.1,0.7,2.1,1.6,3.2,2.3
	c0.6,0.4,1.1,0.8,0.8,1.6C376.9,105.3,376.1,105.1,375.6,105"/>
<path class="st4" d="M381.1,171.2c2.4,0.4,4.7,0.9,7.1,1.2c3.7,0.6,7.1-1.2,10.6-1.9C394.5,174.5,385.6,174.8,381.1,171.2"/>
<path class="st4" d="M399.2,170.2c0.1-0.9,0.6-1.3,1.5-1.1C400.6,170,400.1,170.4,399.2,170.2"/>
<path class="st3" d="M408.5,147c0.1,0.7-0.3,1.1-0.8,1.4C407.9,147.9,407.9,147.2,408.5,147"/>
<path class="st1" d="M104.1,88.1h3.3v0.8h-3.3V88.1z M102.2,88.1h1.1v0.8h-1.1V88.1z M99.7,88.1h1.1v0.8h-1.1V88.1z M71.2,150.1h0.4
	v0.8h-0.4V150.1z M68.7,146.4h0.7c0,0.4,0.3,0.9,0.8,1.5v0.8c-0.3,0-0.8-0.7-1.5-1.8V146.4z M50.2,117.2l-0.8-0.4
	c0,0.5-0.2,0.8-0.7,0.8c0.2,0.5,0.3,0.8,0.3,1.1c2.5-0.2,4.3-0.3,5.5-0.3H55l0.7,0.3l1.5-2.6c-1-2.2-1.6-3.3-1.9-3.3h-3.3
	c-0.5,0-0.9,1.5-1.1,4.4H50.2z M49.1,70.8c0,0.2-0.1,0.3-0.3,0.3c0.2,2.5,0.3,4.3,0.3,5.6v2.2c0,0.3-0.1,0.4-0.3,0.4l0.3,0.7v0.4
	c0,2.2-1,3.3-2.9,3.3v2.2c2,0.1,2.9,0.5,2.9,1.1h-0.3c0.2,0.5,0.3,0.8,0.3,1.1H58v0.8h-3.3l-1.5,1.8h-1.9v3.7h11.4
	c5,0,8.3-1.2,10-3.7c2.4,0,3.6-0.9,3.6-2.6h-3.3l-0.7-0.3c0.5-1.7,0.7-3.2,0.7-4.5v-2.9c0-2.6-2.2-5.4-6.6-8.5
	c-0.5-0.5-3-0.9-7.3-1.1l-0.8,0.3l-0.8-0.3c-0.2,0-0.3,0.1-0.3,0.3c-0.9-0.2-1.4-0.3-1.5-0.3c-2.1,0.2-3.4,0.3-3.6,0.3
	C50.7,70.9,49.7,70.8,49.1,70.8 M39.1,118.7v0.4c0.1,0.5,0.3,0.8,0.8,0.8h6.6c0.5,0,0.7-0.3,0.7-0.8v-0.4H39.1z M29.9,88.8h0.7v-0.4
	h-0.7V88.8z M28.1,88.8h0.7v-0.4h-0.7V88.8z M29.6,51.2c0.5,0,0.7,0.1,0.7,0.4c3.7-0.3,6.4-0.4,8.2-0.4h25.8
	c9.4,0,15.6,0.9,18.8,2.6c2.2,0.7,3.6,1.4,4.1,2.2c-0.3,0.4-0.4,0.9-0.4,1.5c3.8,1.9,7.2,5.9,10,12.2c1.7,5.2,2.6,9.2,2.6,11.8
	c0,0.9-0.4,3.9-1.1,8.9c1.5,0,2.2,0.3,2.2,0.8c-2.8,7.7-7.2,13.3-13.3,17l-5.6,2.2v0.4c0.6,0.5,1.9,2.5,4.1,5.9
	c-0.8,0.5-1.4,0.7-1.8,0.7l0.4,0.8v0.4c-4.5,0.2-7.4,0.3-8.9,0.3v0.4c0.1,0.5,0.3,0.8,0.8,0.8h9.2l3.3,4c2.4,0,4,1.2,4.8,3.7v0.4
	c-1.2,0-1.8,0.3-1.8,0.8c7.7,11,11.5,16.6,11.5,17c-1,0.2-1.5,0.4-1.5,0.7c1.7,2.6,2.6,4.1,2.6,4.5l-0.7,0.3H84.9
	c-2.1,0-5.4-0.1-10-0.3c-2-2.8-2.9-4.3-2.9-4.5c0.4-0.3,1-0.4,1.9-0.4v-0.3c-7.1-10.8-10.7-16.8-10.7-17.7h1.5v-0.8
	c-0.8-2.4-2.2-3.6-4.4-3.6c-1.9-2.5-3.4-3.7-4.5-3.7h-6.6v1.8c0,0.2-0.1,0.3-0.3,0.3l0.3,0.8v17h4.1c0.5,0.1,0.8,0.3,0.8,0.8
	c0,0.5-0.3,0.7-0.8,0.7h-4.1c0,1.2-0.1,1.9-0.3,1.9l0.3,0.8v4.4c0,0.5-0.1,1-0.3,1.5c0.2,0.5,0.3,0.9,0.3,1.1l-0.7,0.3H33.3
	c-2.5,0-6.2-0.1-11.1-0.3V142c0.1-0.5,0.3-0.8,0.8-0.8h4v-1.1h-4c-0.5,0-0.8-0.3-0.8-0.8v-19.2l-1.8-0.4H13c-0.5,0-0.8-0.3-0.8-0.8
	l0.8-0.4c6.1-0.1,9.2-0.3,9.2-0.7c0-0.8,0.3-1.1,0.8-1.1c0.5,0.3,0.8,0.4,1.1,0.4l0.4-0.7V91.4c0.1-0.5,0.3-0.7,0.7-0.7h1.8l0.4-2.2
	c-0.5-0.3-0.8-0.4-1.1-0.4c-2.2,0.3-3.4,0.4-3.7,0.4c0-2-1-2.9-2.9-2.9v-1.9l2.6-1.5V57.4l2.2-1.5v-3.7c0.1-0.5,0.3-0.7,0.7-0.7h2.6
	C28.5,51.6,29.2,51.4,29.6,51.2"/>
<path class="st1" d="M155.8,136.6v1.5c0.1,0.5,0.3,0.8,0.8,0.8h5.1c0-0.3,0.1-0.7,0.4-1.1c-0.3-0.5-0.4-0.8-0.4-1.1H155.8z
	 M116.1,136.3h3.3v-0.7h-2.6C116.3,135.6,116.1,135.9,116.1,136.3 M102.8,95.4h1.8c0.5,0.1,0.7,0.3,0.7,0.7V98
	c0,0.5-0.2,0.7-0.7,0.7h-1.8c-0.5,0-0.8-0.2-0.8-0.7v-1.8C102.1,95.6,102.4,95.4,102.8,95.4 M116.8,51.2h52.3c0.3,0,0.7,0.4,1.1,1.1
	v12.6c0,0.3,0.4,0.7,1.1,1.1h1.5c0.6,0,1.1-0.1,1.5-0.4c1.2,0.3,1.8,0.7,1.8,1.1v0.8c0,0.5-0.2,0.7-0.7,0.7h-1.9v1.9
	c0,0.5-0.3,0.8-0.8,0.8h-25.4c-2.6,0-6.5,0.1-11.8,0.4v3.3c0.1,0.5,0.3,0.7,0.7,0.7h3.3c0.5,0.1,0.8,0.3,0.8,0.8v15.8h32
	c0.5,0.1,0.7,0.3,0.7,0.7V98c0,0.5-1.3,0.8-4,1.1l-0.8-0.4l-2.2,0.4c-0.5-0.3-0.9-0.4-1.1-0.4l-0.4,1.9v6.3l0.4,3.7l-1.1,0.8h-31.3
	c0,0.8-0.9,1.3-2.6,1.5l-2.2-0.4h-0.7c-0.5,0.1-0.8,0.3-0.8,0.8v0.3h2.2l3.7,0.4V126c0,1.3,0.7,2,2.2,2.2c0,0.5,0.1,1,0.4,1.5
	c-0.3,0.4-0.4,0.9-0.4,1.5v0.4h35c0.5,0,0.8,1.2,1.1,3.7h5.5c0.5,0.1,0.8,0.3,0.8,0.7c0,0.5-0.3,0.8-0.8,0.8h-4l-1.8,0.4v14h-60.4
	c-0.3,0-0.4-0.1-0.4-0.4l-0.8,0.4h-2.2c-0.4,0-0.7-0.4-1.1-1.1v-0.8c0-0.3,0.1-0.4,0.4-0.4l-0.4-0.7v-8.9l-1.9-0.3h-3.3
	c-0.5,0-0.8-0.3-0.8-0.8v-0.8c0.1-0.5,0.3-0.7,0.8-0.7c4.1-0.3,7.3-0.4,9.6-0.4h1.5v-0.7l-3.7-0.4h-1.5c-0.5,0-0.8-0.4-0.8-1.1
	l0.4-0.8c-0.3-0.4-0.4-0.9-0.4-1.5c0-0.3,0.7-0.7,2.2-1.1c0.3-0.4,0.4-0.9,0.4-1.5c0-1.1-0.9-1.6-2.6-1.8v-12.6l0.4-0.7l-0.7-0.4
	h-4.8c-0.5,0-0.8-0.2-0.8-0.7c0.1-0.5,0.3-0.8,0.8-0.8h4.4c0.5,0,0.7-0.3,0.7-0.8V99.4c0-0.5,0.4-0.8,1.1-0.8c0.8,0,3.1-0.1,7-0.3
	V75.9c0-0.8-1.3-1.1-4-1.1h-0.8v-5.9l2.6-1.5v-0.8c0-0.5-0.3-0.7-0.8-0.7h-4.4c-0.5,0-0.8-0.3-0.8-0.8V52.3l0.4-0.7
	C110.7,51.3,114.3,51.2,116.8,51.2"/>
<path class="st1" d="M225.2,98h4c0.5,0.1,0.8,0.3,0.8,0.8v0.4c0,0.5-0.3,0.7-0.8,0.7h-3.3c-0.5,0-0.7-0.2-0.7-0.7V98z M201.2,71.8v4
	c0.1,0.5,0.3,0.8,0.7,0.8h4.5c0.5,0.1,0.7,0.3,0.7,0.8v19.5c0,0.2-0.4,0.5-1.1,1.1l-1.8-0.3h-2.2l-1.5,2.6h-3.3
	c-0.5,0.1-0.7,0.3-0.7,0.8v2.2h4c0.2,0,0.6,0.4,1.1,1.1l-0.4,1.9v14.4c0,0.5,0.1,1,0.4,1.5c-0.3,0.4-0.4,0.9-0.4,1.5v1.5l0.4,1.9
	h4.4c0.5,0,1,0.1,1.5,0.4c0.4-0.3,0.9-0.4,1.5-0.4l0.4,0.8l-1.5,0.7c-0.5,0-0.8-0.1-0.8-0.3l-2.6,0.3h-2.9l-0.4,1.9v0.8
	c0.1,0.5,0.3,0.8,0.7,0.8h7.8c2.4,0,6.3-1.1,11.8-3.4c3.7-0.2,6.4-0.3,8.1-0.3l0.4-0.8c-2.5-0.3-4.3-0.4-5.5-0.4h-0.7v-0.7
	c4.5-3.3,7.9-8.1,10-14.4l1.8-7.7l-1.1-0.8h-3.3c-0.5,0-0.7-0.2-0.7-0.7V101c0-0.4,0.4-0.7,1.1-1.1c0.3,0,0.4,0.1,0.4,0.4
	c2.3,0,3.8-0.7,4.4-2.2h2.2l2.6-0.3v-0.8c-0.9-7.3-4.5-13.9-10.7-19.9c-5.4-0.4-8.7-1.3-10-2.6c-4-2.2-7.3-3.3-10-3.3h-8.5
	C201.4,71.2,201.2,71.4,201.2,71.8 M172.8,76.6h0.7c0.5,0.1,0.8,0.3,0.8,0.8v0.7c0,0.4-0.6,0.8-1.9,1.1l-0.4-0.7v-1.1
	C172.1,76.9,172.4,76.6,172.8,76.6 M166.1,99.9h0.8c0.5,0.1,0.8,0.3,0.8,0.8v1.8c0,0.5-0.3,0.7-0.8,0.7h-1.5v-2.6
	C165.5,100.1,165.7,99.9,166.1,99.9 M186.1,51.2h21c15,0,26.7,3.4,35.1,10.3c6.2,5,10.7,10.1,13.7,15.1h5.2
	c4.4,7.5,6.6,14.1,6.6,19.5v0.8c0,0.1-0.3,0.5-0.8,1.1l-1.8-0.3h-2.9v1.8c0,0.5-0.3,0.8-0.8,0.8h-4v2.9h4c0.5,0.1,0.8,0.3,0.8,0.8
	v0.7c0,5.4-2.1,12.4-6.3,21.1c-0.5,0.1-0.8,0.3-0.8,0.8v0.3h7c0.5,0.1,0.7,0.3,0.7,0.8c-0.8,0.5-1.5,0.7-2.2,0.7h-6.3l-5.5,6.7h-7
	c-3.7,0-5.5,0.6-5.5,1.8v0.4h9.6c0.5,0.1,0.8,0.3,0.8,0.8c-0.4,0-1.9,1.1-4.4,3.3c-9.3,6.6-18.3,10-26.9,10h-40.6v-13.3
	c0-0.5-0.2-0.8-0.7-0.8h-0.8c-6.4,0-9.6-0.4-9.6-1.1v-0.4c0.1-0.5,0.3-0.7,0.8-0.7h9.6c0.5,0,0.7-0.3,0.7-0.8v-5.9
	c1.6,0,4.1-0.1,7.4-0.3v-0.8c-3.3-0.3-5.7-0.4-7-0.4l-0.4-0.7v-21.8c0-0.4-0.4-0.7-1.1-1.1h-3.3c-0.5,0-0.7-0.2-0.7-0.7V101
	c0-0.6,1-1,2.9-1.1l0.7,0.4l2.6-2.2c3.2,0,4.8-0.4,4.8-1.1V77.4c0-0.6-2-1.1-5.9-1.5V52.3l0.4-0.7C179.9,51.3,183.6,51.2,186.1,51.2
	"/>
<polygon class="st0" points="33.7,168.5 45.9,211.2 46.1,211.2 58.4,168.5 74.5,168.5 54.1,229.4 38,229.4 17.7,168.5 "/>
<path class="st0" d="M92.3,208.2h12.7l-6.2-20.8h-0.1h-0.2L92.3,208.2z M88.1,220.6l-3.2,8.8H68.2l24.4-60.9h12.3l24.2,60.9h-16.9
	l-3-8.8H88.1z"/>
<path class="st0" d="M150.1,196.6h6.3c3,0,9.7,0,9.7-7.3c0-7.2-6.9-7.2-10.3-7.2h-5.8V196.6z M135.3,168.5h19.9
	c11.3,0,15.5,1.7,18.8,4.4c4.8,3.9,7.2,10,7.2,16.1c0,6.2-2.5,12.7-6.4,16c-4.2,3.5-8.3,5.3-17.8,5.3h-6.7v19.1h-14.9V168.5z"/>
<path class="st0" d="M217.3,216.9c11,0,16.4-10,16.4-17.8c0-7.9-5.3-18-16.5-18c-10.8,0-16.6,9.2-16.6,17.8
	C200.5,208.2,206.8,216.9,217.3,216.9 M217,167.4c18.8,0,32.2,14.6,32.2,31.6s-13.3,31.6-32.2,31.6c-19.2,0-32-15.2-32-30.8
	c0-4,0.6-8.6,2.4-13C190.5,178.8,200,167.4,217,167.4"/>
<path class="st0" d="M272.4,199.1h5.5c9.1,0,10.2-5.8,10.2-8.7c0-5.5-4-8.2-10-8.2h-5.7V199.1z M257.6,168.5h19.2
	c10.7,0,14.8,1.3,18.8,4.4c5,3.9,7.5,10.4,7.5,16.6c0,7-3.6,17.3-15.1,19.2l16.5,20.7h-17.8l-14.1-19.7h-0.2v19.7h-14.9V168.5z"/>
</svg>
